<?xml version="1.0" encoding="utf-8"?>
<!-- Svg Vector Icons : http://www.onlinewebfonts.com/icon -->
<!DOCTYPE svg PUBLIC "-//W3C//DTD SVG 1.1//EN" "http://www.w3.org/Graphics/SVG/1.1/DTD/svg11.dtd">
<svg version="1.1" xmlns="http://www.w3.org/2000/svg" xmlns:xlink="http://www.w3.org/1999/xlink" viewBox="0 0 1000 1000" enable-background="new 0 0 1000 1000" xml:space="preserve" width="50" height="50">
<metadata> Svg Vector Icons : http://www.onlinewebfonts.com/icon </metadata>
<g><path id="iTunes" fill="#ddd" d="M500,10C229.4,10,10,229.4,10,500s219.4,490,490,490s490-219.4,490-490S770.6,10,500,10z M500,892c-216.5,0-392-175.5-392-392s175.5-392,392-392s392,175.5,392,392S716.5,892,500,892z M679.4,631.3c3.1,41.7-28.1,79.6-69.9,84.8c-41.7,5.2-78.2-24.4-81.4-66.1c-3.2-41.6,28.2-79.6,69.9-84.8c13.2-1.6,25.8,0.2,37.1,4.8V365.4l-196,36.5v255.7h-0.4c0.1,0.7,0.3,1.4,0.3,2.1c3.2,41.7-28.1,79.6-69.9,84.8c-41.8,5.2-78.2-24.4-81.4-66c-3.2-41.7,28.1-79.7,69.9-84.8c13.2-1.7,25.8,0.2,37.1,4.8V303.7v-0.1l284.3-48.6l0.3-0.1v0l0.1,0l-0.1,1.3v372.9h-0.4C679.3,630,679.4,630.6,679.4,631.3z"/></g>
</svg>
